<?xml version="1.0" standalone="no"?>
<!DOCTYPE svg PUBLIC "-//W3C//DTD SVG 20010904//EN"
 "http://www.w3.org/TR/2001/REC-SVG-20010904/DTD/svg10.dtd">
<svg version="1.0" xmlns="http://www.w3.org/2000/svg"
 width="3556.000000pt" height="2000.000000pt" viewBox="0 0 3556.000000 2000.000000"
 preserveAspectRatio="xMidYMid meet">

<g transform="translate(0.000000,2000.000000) scale(0.100000,-0.100000)"
fill="#000000" stroke="none">
<path d="M1 15533 l0 -4468 24 100 c267 1153 1041 2112 2113 2622 557 265
1180 389 1820 362 922 -39 1817 -420 2483 -1057 149 -142 208 -211 696 -801
l402 -486 1 -2592 c0 -2460 -1 -2592 -17 -2596 -16 -4 -16 -5 0 -6 10 0 17 -7
14 -13 -2 -7 -13 -12 -25 -12 -12 1 -19 -3 -16 -7 3 -5 11 -6 17 -2 8 5 8 2 0
-9 -7 -8 -10 -18 -6 -22 4 -4 0 -4 -10 0 -9 3 -14 11 -10 17 3 6 1 7 -6 3 -6
-4 -9 -11 -6 -16 8 -13 -14 -62 -25 -55 -6 3 -13 -1 -16 -10 -4 -9 -13 -14
-21 -11 -8 3 -21 -1 -30 -9 -12 -13 -18 -13 -31 -3 -12 10 -14 10 -8 1 4 -8 1
-13 -8 -13 -9 0 -16 -5 -16 -11 0 -5 -4 -8 -8 -5 -5 3 -8 -8 -7 -24 1 -17 0
-28 -3 -25 -2 2 -12 -4 -21 -13 -9 -10 -12 -12 -7 -5 6 9 3 13 -8 13 -9 0 -16
-7 -16 -16 0 -9 -5 -12 -12 -8 -10 5 -10 4 -1 -6 9 -10 9 -16 -2 -26 -18 -19
-31 -18 -15 1 10 12 10 15 -4 15 -11 0 -16 -9 -16 -27 0 -16 -4 -35 -10 -43
-8 -12 -10 -12 -16 3 -3 9 -10 17 -15 17 -4 0 -6 -6 -3 -14 3 -8 0 -17 -7 -22
-7 -4 -10 -3 -5 4 12 20 -9 20 -29 0 -12 -12 -14 -18 -6 -16 7 2 16 -4 18 -12
3 -9 1 -11 -4 -5 -10 12 -45 16 -38 5 3 -5 1 -11 -4 -14 -5 -4 -12 1 -14 9 -4
11 -4 10 -3 -2 1 -13 9 -17 31 -16 23 2 20 -1 -13 -10 -24 -7 -40 -15 -36 -20
4 -4 4 -7 0 -7 -4 0 -14 6 -22 14 -11 11 -11 16 -1 19 9 4 9 6 0 6 -17 1 -23
-12 -16 -38 4 -16 11 -21 24 -18 11 3 17 1 13 -4 -3 -5 -11 -9 -17 -9 -7 0
-18 -9 -24 -19 -11 -17 -52 -24 -45 -8 1 4 2 13 2 20 0 7 7 4 15 -7 8 -11 15
-16 15 -10 0 18 -18 36 -30 32 -16 -5 -23 -45 -10 -53 6 -3 10 -11 10 -17 0
-5 -9 0 -21 13 -19 23 -20 23 -14 3 9 -33 -4 -54 -31 -52 -13 1 -24 6 -24 10
0 17 -18 7 -23 -12 -3 -14 -1 -18 6 -13 18 11 37 12 37 3 0 -5 -13 -11 -29
-15 -16 -3 -36 -14 -43 -23 -8 -10 -9 -13 -1 -9 6 4 15 2 19 -4 4 -7 3 -9 -4
-5 -6 3 -14 1 -18 -5 -4 -8 -9 -7 -15 2 -4 8 -8 -164 -9 -381 0 -227 -4 -398
-10 -404 -5 -5 -7 0 -4 15 4 14 2 19 -3 13 -10 -14 -56 -39 -65 -36 -8 2 -12
-23 -9 -42 1 -5 -5 -3 -14 4 -8 7 -18 10 -22 6 -3 -3 -1 -6 5 -6 17 0 9 -41
-10 -51 -10 -6 -16 -14 -13 -19 3 -5 0 -12 -6 -16 -8 -4 -9 -3 -5 4 9 15 -9
15 -35 2 -20 -11 -27 -40 -9 -40 5 0 7 6 4 14 -3 7 2 16 12 20 13 5 14 4 6 -7
-7 -8 -9 -16 -6 -20 3 -3 -4 -11 -16 -17 -12 -7 -20 -8 -16 -2 3 5 -3 12 -14
15 -13 3 -21 -1 -25 -14 -4 -10 -10 -19 -15 -19 -5 0 -7 -12 -4 -26 3 -15 1
-23 -5 -20 -5 4 -11 1 -14 -6 -2 -7 -2 -2 0 12 3 21 2 22 -7 8 -6 -10 -19 -18
-28 -18 -15 -1 -15 -2 2 -15 21 -16 21 -16 -11 -20 -16 -2 -20 2 -18 16 6 28
-12 23 -19 -5 -3 -12 -6 -249 -6 -525 0 -276 -3 -508 -7 -516 -4 -12 -9 -13
-19 -4 -11 9 -14 8 -14 -5 0 -9 -6 -16 -12 -16 -10 0 -10 -2 0 -9 10 -6 10
-10 -2 -20 -9 -8 -16 -8 -20 -2 -10 16 -36 1 -36 -21 0 -10 -5 -16 -10 -13 -6
4 -8 11 -5 16 8 12 -28 -2 -37 -15 -17 -25 -7 -37 13 -15 19 23 20 23 9 2 -8
-18 -7 -24 7 -32 10 -6 13 -11 7 -11 -5 0 -14 4 -20 10 -6 6 -20 4 -39 -6 -17
-8 -32 -15 -35 -15 -3 0 -5 -9 -4 -20 0 -13 -3 -16 -10 -9 -15 15 -33 12 -40
-6 -3 -8 -2 -12 4 -9 6 4 5 -6 -2 -22 -15 -35 -31 -54 -26 -31 1 9 -1 17 -7
17 -5 0 -9 -10 -8 -22 l3 -22 -10 23 c-11 27 -20 29 -15 3 2 -11 -3 -27 -11
-38 -13 -16 -13 -16 -8 -1 4 11 1 18 -7 18 -10 0 -10 3 -1 12 7 7 12 17 12 23
-1 11 -24 -24 -26 -40 0 -5 -2 -19 -3 -30 -3 -17 -4 -17 -11 5 -7 21 -15 -284
-11 -435 0 -23 -3 -35 -8 -27 -6 9 -12 7 -27 -10 -19 -22 -19 -23 1 -8 19 14
19 14 6 -3 -11 -14 -16 -15 -29 -5 -11 9 -14 10 -9 1 5 -7 -2 -17 -17 -25 -14
-7 -25 -17 -26 -23 0 -5 -10 -10 -22 -10 -15 0 -24 -8 -28 -25 -3 -14 -11 -25
-17 -25 -6 0 -15 -4 -20 -9 -5 -5 -3 -6 5 -2 7 4 12 1 12 -9 0 -9 -4 -13 -10
-10 -5 3 -10 0 -11 -7 0 -7 -4 -4 -9 7 -5 11 -9 14 -9 6 -1 -9 -8 -11 -23 -8
-22 6 -22 6 2 -13 23 -18 24 -19 3 -14 -25 7 -66 -18 -69 -41 -1 -8 2 -13 7
-9 5 3 9 0 9 -6 0 -6 -10 -8 -23 -5 -15 4 -28 1 -36 -9 -7 -9 -17 -14 -21 -11
-4 3 -7 -3 -6 -13 0 -9 -5 -16 -12 -14 -9 1 -8 -5 4 -23 15 -23 15 -25 0 -19
-14 6 -16 -13 -16 -186 0 -150 -3 -190 -12 -184 -10 6 -10 4 0 -8 10 -13 10
-17 -3 -22 -9 -3 -13 -10 -10 -16 3 -5 1 -10 -4 -10 -6 0 -11 5 -11 11 0 11
-34 -19 -36 -33 -1 -4 -2 -16 -3 -25 -2 -16 -3 -15 -11 2 -5 12 -9 14 -9 6 -1
-8 -4 -12 -7 -9 -7 7 -60 -44 -56 -55 1 -5 -2 -6 -8 -2 -5 3 -10 11 -10 16 0
6 -9 18 -19 27 -21 18 -159 185 -1490 1796 -476 577 -920 1115 -987 1195 -66
80 -336 407 -600 727 -263 319 -729 883 -1034 1253 -305 370 -596 729 -646
798 -282 387 -484 820 -610 1308 l-43 170 -1 -3636 0 -3636 24 4 c34 7 89 -13
116 -42 33 -35 38 -109 10 -153 -24 -39 -82 -66 -122 -58 l-28 6 0 -229 0
-228 30 5 c70 10 140 -51 140 -121 0 -48 -27 -100 -62 -118 -13 -7 -42 -12
-65 -12 l-43 0 0 -226 0 -226 51 0 c46 0 54 -4 85 -37 78 -86 22 -208 -96
-208 l-40 0 0 -224 0 -223 52 -5 c44 -5 57 -11 85 -42 26 -28 33 -44 33 -76
l0 -40 248 0 247 0 1 38 c3 92 101 151 184 109 35 -18 70 -74 70 -113 l0 -34
249 0 248 0 -4 23 c-7 36 22 94 59 117 87 53 198 -11 198 -115 l0 -25 245 0
245 0 0 33 c0 67 62 127 132 127 69 0 137 -75 125 -137 l-4 -23 248 0 249 0 0
34 c0 39 35 95 70 113 57 29 137 5 166 -49 8 -13 13 -40 14 -60 l0 -38 250 0
250 0 0 40 c0 32 7 48 34 78 32 34 38 37 91 37 53 0 59 -3 91 -37 27 -30 34
-46 34 -78 l0 -40 15825 0 15825 0 0 10000 0 10000 -1686 0 -1686 0 -20 -25
c-13 -16 -29 -25 -48 -25 -28 0 -60 22 -60 41 0 5 -55 9 -126 9 -123 0 -127
-1 -146 -25 -13 -16 -29 -25 -48 -25 -19 0 -35 9 -48 25 -19 24 -24 25 -142
25 -118 0 -123 -1 -142 -25 -26 -33 -70 -33 -96 0 -19 24 -23 25 -146 25 -71
0 -126 -4 -126 -9 0 -19 -32 -41 -60 -41 -19 0 -35 9 -48 25 -19 24 -24 25
-137 25 -113 0 -119 -1 -141 -25 -30 -32 -68 -32 -98 0 -22 24 -28 25 -141 25
-113 0 -119 -1 -141 -25 -30 -32 -68 -32 -98 0 l-23 25 -15077 0 -15076 0 1
-4467z m30269 4167 c40 -40 12 -102 -47 -102 -30 0 -63 33 -63 63 0 27 35 59
65 59 14 0 34 -9 45 -20z m380 0 c57 -57 -31 -139 -90 -85 -40 36 -10 105 45
105 14 0 34 -9 45 -20z m379 -6 c26 -33 26 -45 3 -74 -34 -42 -112 -17 -112
34 0 63 71 89 109 40z m373 9 c10 -9 18 -30 18 -49 0 -42 -40 -67 -80 -52 -30
11 -40 25 -40 57 0 53 62 80 102 44z m380 0 c18 -16 24 -59 10 -79 -16 -24
-51 -35 -74 -23 -29 15 -38 28 -38 58 0 53 62 80 102 44z m380 0 c24 -21 23
-65 -2 -88 -57 -52 -137 18 -89 78 24 31 63 35 91 10z m-1898 -354 c31 -25 33
-57 6 -87 -26 -28 -57 -28 -87 0 -30 28 -29 53 2 83 29 30 45 31 79 4z m381
-4 c30 -29 31 -45 4 -79 -25 -31 -61 -34 -89 -6 -28 28 -25 64 6 89 34 27 50
26 79 -4z m380 0 c14 -13 25 -30 25 -38 0 -26 -41 -67 -66 -67 -31 0 -64 33
-64 65 0 30 32 65 60 65 12 0 32 -11 45 -25z m373 9 c34 -23 27 -83 -10 -104
-25 -13 -31 -13 -55 0 -37 20 -43 70 -14 99 25 25 49 27 79 5z m383 -5 c29
-29 23 -79 -13 -99 -25 -13 -31 -13 -55 0 -53 30 -32 120 27 120 11 0 29 -9
41 -21z m379 1 c39 -39 11 -110 -44 -110 -32 0 -69 45 -60 74 8 27 41 56 65
56 10 0 28 -9 39 -20z m-1880 -372 c13 -25 13 -31 0 -55 -21 -38 -81 -45 -104
-11 -9 12 -16 29 -16 38 0 9 7 26 16 38 23 34 83 27 104 -10z m380 0 c13 -25
13 -31 0 -55 -21 -38 -81 -45 -104 -11 -9 12 -16 29 -16 38 0 9 7 26 16 38 23
34 83 27 104 -10z m370 16 c20 -23 16 -75 -5 -90 -63 -46 -140 31 -88 88 20
22 76 24 93 2z m374 0 c9 -8 16 -28 16 -44 0 -36 -23 -60 -57 -60 -55 0 -83
62 -46 102 20 22 66 24 87 2z m378 -1 c38 -34 11 -103 -40 -103 -53 0 -83 68
-46 104 20 21 63 20 86 -1z m380 0 c38 -34 11 -103 -41 -103 -48 0 -78 41 -62
83 15 39 70 50 103 20z m-1892 -353 c40 -40 12 -102 -47 -102 -30 0 -63 33
-63 63 0 27 35 59 65 59 14 0 34 -9 45 -20z m380 -5 c20 -21 22 -30 14 -53 -5
-15 -22 -33 -38 -41 -25 -12 -31 -11 -55 6 -33 26 -39 65 -12 92 28 28 62 26
91 -4z m383 -7 c17 -23 19 -31 9 -53 -29 -63 -121 -46 -122 23 0 32 36 64 67
60 14 -2 35 -15 46 -30z m371 13 c27 -29 18 -83 -16 -99 -45 -21 -88 8 -88 60
0 50 70 77 104 39z m378 2 c40 -36 13 -106 -40 -106 -41 0 -62 19 -62 56 0 58
60 88 102 50z m376 1 c22 -15 30 -57 14 -80 -15 -23 -50 -34 -77 -24 -27 10
-50 54 -39 73 28 48 62 59 102 31z m-24777 -12217 c-10 -9 -11 -8 -5 6 3 10 9
15 12 12 3 -3 0 -11 -7 -18z m39 19 c0 -3 -4 -8 -10 -11 -5 -3 -10 -1 -10 4 0
6 5 11 10 11 6 0 10 -2 10 -4z m-60 -18 c0 -5 -7 -11 -15 -14 -8 -4 -15 -10
-15 -16 0 -5 5 -6 12 -2 7 4 8 3 4 -5 -4 -6 -12 -9 -17 -6 -10 7 -12 38 -4 47
8 8 35 5 35 -4z m-605 -1248 c-3 -5 -12 -10 -18 -10 -7 0 -6 4 3 10 19 12 23
12 15 0z m-1 -28 c6 -10 -30 -9 -40 1 -4 4 2 7 14 7 11 0 23 -4 26 -8z m-200
-158 c3 -8 2 -12 -4 -9 -6 3 -10 10 -10 16 0 14 7 11 14 -7z m-334 -1284 c-11
-21 -30 -19 -30 3 0 8 3 8 9 -1 7 -11 9 -11 14 2 4 9 9 16 12 16 3 0 1 -9 -5
-20z m-40 -51 c0 -5 -4 -9 -8 -9 -5 0 -9 7 -9 15 0 8 4 12 9 9 4 -3 8 -9 8
-15z m-230 -619 c8 -5 11 -10 5 -10 -5 0 -17 5 -25 10 -8 5 -10 10 -5 10 6 0
17 -5 25 -10z m-76 -54 c-3 -15 -8 -25 -11 -23 -2 3 -1 17 3 31 3 15 8 25 11
23 2 -3 1 -17 -3 -31z m63 28 c-3 -3 -12 -4 -19 -1 -8 3 -5 6 6 6 11 1 17 -2
13 -5z m-191 -116 c-2 -14 -8 -18 -28 -18 -6 0 -3 7 8 15 23 18 23 18 20 3z
m39 -8 c-3 -5 -12 -10 -18 -10 -7 0 -6 4 3 10 19 12 23 12 15 0z m-108 -58
c-9 -2 -14 -8 -11 -14 4 -7 2 -8 -5 -4 -9 6 -9 11 0 22 6 7 16 11 23 7 7 -5 5
-9 -7 -11z m-112 -512 c3 -5 2 -10 -4 -10 -5 0 -13 5 -16 10 -3 6 -2 10 4 10
5 0 13 -4 16 -10z m-65 -70 c-24 -16 -31 -11 -19 11 8 16 14 18 22 10 9 -9 8
-14 -3 -21z m-4655 -4 c70 -30 96 -122 52 -187 -26 -39 -89 -66 -129 -56 -43
11 -87 55 -98 98 -14 51 9 103 59 136 39 27 68 29 116 9z m754 -4 c38 -20 71
-73 71 -112 0 -62 -68 -130 -130 -130 -56 0 -116 58 -126 121 -10 65 58 139
126 139 14 0 41 -8 59 -18z m772 -18 c16 -16 34 -45 41 -65 9 -31 8 -43 -8
-75 -22 -45 -75 -84 -113 -84 -40 0 -92 33 -113 71 -22 39 -19 95 7 135 38 59
134 68 186 18z m719 21 c48 -25 70 -62 70 -117 0 -43 -5 -55 -33 -83 -61 -61
-154 -53 -197 17 -66 108 50 240 160 183z m770 -13 c38 -29 51 -61 47 -116 -4
-40 -10 -55 -35 -77 -90 -80 -219 -16 -209 104 2 27 12 56 23 68 44 50 122 59
174 21z m-3009 -687 c60 -32 86 -113 55 -174 -53 -102 -206 -81 -237 32 -9 32
-7 45 11 82 33 68 106 93 171 60z m768 -13 c82 -61 54 -194 -45 -221 -103 -28
-196 82 -147 175 37 71 129 93 192 46z m726 12 c88 -41 94 -158 13 -217 -34
-25 -95 -26 -136 -1 -84 49 -77 181 11 219 42 19 72 18 112 -1z m782 -28 c65
-71 34 -181 -58 -206 -104 -28 -193 84 -144 181 41 78 142 90 202 25z m713 29
c71 -37 92 -120 47 -186 -69 -102 -227 -49 -227 75 0 92 99 153 180 111z
m-2989 -700 c61 -32 87 -117 53 -175 -38 -64 -137 -81 -193 -34 -115 96 7 277
140 209z m760 -8 c40 -27 66 -89 55 -132 -4 -15 -22 -43 -41 -62 -29 -29 -39
-33 -85 -33 -46 0 -56 4 -85 33 -110 110 27 281 156 194z m738 9 c79 -41 89
-152 20 -211 -24 -19 -42 -25 -81 -25 -43 0 -54 4 -83 33 -43 43 -52 79 -34
131 25 73 110 107 178 72z m745 -1 c43 -20 66 -63 66 -120 0 -40 -5 -52 -34
-81 -29 -29 -41 -34 -81 -34 -57 0 -100 23 -120 66 -21 45 -19 86 8 125 39 58
98 74 161 44z m783 -29 c75 -82 20 -206 -92 -206 -107 0 -166 120 -98 200 34
41 58 51 113 46 35 -3 51 -11 77 -40z"/>
<path d="M7433 6521 c-9 -11 -23 -17 -32 -13 -14 5 -14 4 -2 -12 14 -17 16
-17 27 -1 7 9 17 14 23 10 7 -3 11 2 11 14 0 26 -6 26 -27 2z"/>
<path d="M7165 6330 c3 -5 11 -10 16 -10 6 0 7 5 4 10 -3 6 -11 10 -16 10 -6
0 -7 -4 -4 -10z"/>
<path d="M6869 6083 c-13 -16 -12 -17 4 -4 9 7 17 15 17 17 0 8 -8 3 -21 -13z"/>
<path d="M6897 6083 c-3 -5 -2 -15 2 -22 7 -10 10 -10 16 -1 4 6 3 16 -3 22
-5 5 -12 6 -15 1z"/>
<path d="M6795 6009 c-4 -6 -4 -13 -1 -16 3 -4 6 -1 6 6 0 7 4 10 9 6 5 -3 12
-1 16 5 3 5 -1 10 -9 10 -8 0 -18 -5 -21 -11z"/>
<path d="M6657 5123 c-10 -9 -9 -23 1 -23 5 0 9 7 9 15 0 17 -1 18 -10 8z"/>
<path d="M6620 5090 c0 -5 5 -10 10 -10 6 0 10 5 10 10 0 6 -4 10 -10 10 -5 0
-10 -4 -10 -10z"/>
<path d="M6471 4974 c0 -11 3 -14 6 -6 3 7 2 16 -1 19 -3 4 -6 -2 -5 -13z"/>
<path d="M6377 3915 c3 -8 9 -12 14 -9 12 7 11 11 -5 17 -10 4 -13 1 -9 -8z"/>
<path d="M6074 3668 c-3 -4 2 -8 10 -8 8 0 17 4 20 8 3 5 -2 9 -10 9 -8 0 -17
-4 -20 -9z"/>
<path d="M5870 3050 c0 -5 5 -10 11 -10 5 0 7 5 4 10 -3 6 -8 10 -11 10 -2 0
-4 -4 -4 -10z"/>
<path d="M5435 2280 c3 -5 8 -10 11 -10 2 0 4 5 4 10 0 6 -5 10 -11 10 -5 0
-7 -4 -4 -10z"/>
</g>
</svg>
